<?xml version="1.0" encoding="iso-8859-1"?>
<!-- Generator: Adobe Illustrator 19.0.0, SVG Export Plug-In . SVG Version: 6.00 Build 0)  -->
<svg version="1.1" id="Capa_1" xmlns="http://www.w3.org/2000/svg" xmlns:xlink="http://www.w3.org/1999/xlink" x="0px" y="0px"
	 viewBox="0 0 512.005 512.005" style="enable-background:new 0 0 512.005 512.005;" xml:space="preserve">
<g>
	<polygon style="fill:#9D6566;" points="76.803,76.803 8.536,179.203 8.536,196.269 8.536,213.336 8.536,503.469 145.069,503.469 
		145.069,213.336 145.069,196.269 145.069,179.203 	"/>
	<polygon style="fill:#9D6566;" points="435.203,76.803 366.936,179.203 366.936,196.269 366.936,213.336 366.936,503.469 
		503.469,503.469 503.469,213.336 503.469,196.269 503.469,179.203 	"/>
	<polygon style="fill:#9D6566;" points="145.069,324.269 145.069,503.469 366.936,503.469 366.936,324.269 256.003,187.736 	"/>
</g>
<path style="fill:#F6D295;" d="M332.803,503.469H179.561v-85.513c0-42.317,34.304-76.621,76.621-76.621l0,0
	c42.317,0,76.621,34.304,76.621,76.621V503.469z"/>
<polygon style="fill:#825154;" points="256.003,136.536 145.069,273.069 145.069,324.269 256.003,187.736 366.936,324.269 
	366.936,273.069 "/>
<rect x="8.536" y="196.269" style="fill:#AE7A7B;" width="136.533" height="307.2"/>
<path style="fill:#99B0DD;" d="M110.936,401.069H42.669V281.603c0-18.85,15.283-34.133,34.133-34.133l0,0
	c18.85,0,34.133,15.283,34.133,34.133V401.069z"/>
<rect x="42.669" y="401.069" style="fill:#A6B8E5;" width="68.267" height="68.267"/>
<polygon style="fill:#AE7A7B;" points="145.069,179.203 8.536,179.203 76.803,76.803 "/>
<rect x="8.536" y="179.203" style="fill:#9D6566;" width="136.533" height="34.133"/>
<circle style="fill:#99B0DD;" cx="256.003" cy="281.603" r="25.6"/>
<rect x="366.936" y="204.803" style="fill:#AE7A7B;" width="136.533" height="298.667"/>
<path style="fill:#99B0DD;" d="M469.336,401.069h-68.267V281.603c0-18.85,15.283-34.133,34.133-34.133l0,0
	c18.85,0,34.133,15.283,34.133,34.133V401.069z"/>
<rect x="401.069" y="401.069" style="fill:#A6B8E5;" width="68.267" height="68.267"/>
<polygon style="fill:#AE7A7B;" points="503.469,179.203 366.936,179.203 435.203,76.803 "/>
<rect x="366.936" y="179.203" style="fill:#9D6566;" width="136.533" height="34.133"/>
<g>
	<path style="fill:#4D007E;" d="M145.069,512.003H8.536c-4.71,0-8.533-3.823-8.533-8.533V213.336c0-4.71,3.823-8.533,8.533-8.533
		h136.533c4.71,0,8.533,3.823,8.533,8.533v290.133C153.603,508.18,149.78,512.003,145.069,512.003z M17.069,494.936h119.467V221.869
		H17.069V494.936z"/>
	<path style="fill:#4D007E;" d="M145.069,187.736H8.536c-3.149,0-6.042-1.732-7.526-4.506c-1.485-2.773-1.323-6.144,0.427-8.755
		l68.267-102.4c3.166-4.753,11.034-4.753,14.199,0l68.267,102.4c1.749,2.62,1.911,5.982,0.427,8.755
		C151.111,186.004,148.218,187.736,145.069,187.736z M24.476,170.669H129.12L76.803,92.188L24.476,170.669z"/>
	<path style="fill:#4D007E;" d="M145.069,221.869H8.536c-4.71,0-8.533-3.823-8.533-8.533v-34.133c0-4.71,3.823-8.533,8.533-8.533
		h136.533c4.71,0,8.533,3.823,8.533,8.533v34.133C153.603,218.046,149.78,221.869,145.069,221.869z M17.069,204.803h119.467v-17.067
		H17.069V204.803z"/>
	<path style="fill:#4D007E;" d="M503.469,221.869H366.936c-4.71,0-8.533-3.823-8.533-8.533v-34.133c0-4.71,3.823-8.533,8.533-8.533
		h136.533c4.71,0,8.533,3.823,8.533,8.533v34.133C512.003,218.046,508.18,221.869,503.469,221.869z M375.469,204.803h119.467
		v-17.067H375.469V204.803z"/>
	<path style="fill:#4D007E;" d="M76.803,85.336c-4.71,0-8.533-3.823-8.533-8.533V8.536c0-4.71,3.823-8.533,8.533-8.533
		s8.533,3.823,8.533,8.533v68.267C85.336,81.513,81.513,85.336,76.803,85.336z"/>
	<path style="fill:#4D007E;" d="M102.403,42.669h-51.2c-4.71,0-8.533-3.823-8.533-8.533s3.823-8.533,8.533-8.533h51.2
		c4.71,0,8.533,3.823,8.533,8.533S107.113,42.669,102.403,42.669z"/>
	<path style="fill:#4D007E;" d="M503.469,187.736H366.936c-3.149,0-6.042-1.732-7.526-4.506c-1.485-2.773-1.323-6.144,0.427-8.755
		l68.267-102.4c3.166-4.753,11.034-4.753,14.199,0l68.267,102.4c1.749,2.62,1.911,5.982,0.427,8.755
		C509.511,186.004,506.618,187.736,503.469,187.736z M382.876,170.669H487.52l-52.318-78.481L382.876,170.669z"/>
	<path style="fill:#4D007E;" d="M435.203,85.336c-4.71,0-8.533-3.823-8.533-8.533V8.536c0-4.71,3.823-8.533,8.533-8.533
		s8.533,3.823,8.533,8.533v68.267C443.736,81.513,439.913,85.336,435.203,85.336z"/>
	<path style="fill:#4D007E;" d="M460.803,42.669h-51.2c-4.71,0-8.533-3.823-8.533-8.533s3.823-8.533,8.533-8.533h51.2
		c4.71,0,8.533,3.823,8.533,8.533S465.513,42.669,460.803,42.669z"/>
	<path style="fill:#4D007E;" d="M503.469,512.003H366.936c-4.71,0-8.533-3.823-8.533-8.533V213.336c0-4.71,3.823-8.533,8.533-8.533
		h136.533c4.71,0,8.533,3.823,8.533,8.533v290.133C512.003,508.18,508.18,512.003,503.469,512.003z M375.469,494.936h119.467
		V221.869H375.469V494.936z"/>
	<path style="fill:#4D007E;" d="M256.003,145.069c-4.71,0-8.533-3.823-8.533-8.533V68.269c0-4.71,3.823-8.533,8.533-8.533
		c4.71,0,8.533,3.823,8.533,8.533v68.267C264.536,141.246,260.713,145.069,256.003,145.069z"/>
	<path style="fill:#4D007E;" d="M281.603,102.403h-51.2c-4.71,0-8.533-3.823-8.533-8.533c0-4.71,3.823-8.533,8.533-8.533h51.2
		c4.71,0,8.533,3.823,8.533,8.533C290.136,98.58,286.313,102.403,281.603,102.403z"/>
	<path style="fill:#4D007E;" d="M366.936,332.803c-2.517,0-4.975-1.118-6.622-3.157L256.003,201.27L151.691,329.645
		c-2.278,2.807-6.076,3.883-9.481,2.662c-3.396-1.203-5.675-4.429-5.675-8.038v-51.2c0-1.954,0.674-3.857,1.911-5.376
		L249.381,131.16c3.243-3.994,10.001-3.994,13.244,0l110.933,136.533c1.237,1.519,1.911,3.422,1.911,5.376v51.2
		c0,3.61-2.278,6.835-5.683,8.038C368.856,332.64,367.892,332.803,366.936,332.803z M256.003,179.203
		c2.569,0,5.001,1.161,6.622,3.157l95.778,117.879v-24.141l-102.4-126.029l-102.4,126.029v24.141l95.778-117.879
		C251.002,180.363,253.434,179.203,256.003,179.203z"/>
	<path style="fill:#4D007E;" d="M256.003,315.736c-18.825,0-34.133-15.309-34.133-34.133s15.309-34.133,34.133-34.133
		s34.133,15.309,34.133,34.133C290.136,300.427,274.827,315.736,256.003,315.736z M256.003,264.536
		c-9.412,0-17.067,7.654-17.067,17.067s7.654,17.067,17.067,17.067c9.412,0,17.067-7.654,17.067-17.067
		S265.415,264.536,256.003,264.536z"/>
	<path style="fill:#4D007E;" d="M366.936,512.003H145.069c-4.71,0-8.533-3.823-8.533-8.533v-179.2c0-1.954,0.674-3.857,1.911-5.376
		L249.381,182.36c3.243-3.994,10.001-3.994,13.244,0l110.933,136.533c1.237,1.519,1.911,3.422,1.911,5.376v179.2
		C375.469,508.18,371.646,512.003,366.936,512.003z M153.603,494.936h204.8V327.299l-102.4-126.029l-102.4,126.029V494.936z"/>
	<path style="fill:#4D007E;" d="M110.936,409.603H42.669c-4.71,0-8.533-3.823-8.533-8.533V281.603
		c0-23.526,19.14-42.667,42.667-42.667s42.667,19.14,42.667,42.667v119.467C119.469,405.78,115.646,409.603,110.936,409.603z
		 M51.203,392.536h51.2V281.603c0-14.114-11.486-25.6-25.6-25.6s-25.6,11.486-25.6,25.6V392.536z"/>
	<path style="fill:#4D007E;" d="M110.936,332.803H42.669c-4.71,0-8.533-3.823-8.533-8.533s3.823-8.533,8.533-8.533h68.267
		c4.71,0,8.533,3.823,8.533,8.533S115.646,332.803,110.936,332.803z"/>
	<path style="fill:#4D007E;" d="M76.803,477.869c-4.71,0-8.533-3.823-8.533-8.533V247.469c0-4.71,3.823-8.533,8.533-8.533
		s8.533,3.823,8.533,8.533v221.867C85.336,474.046,81.513,477.869,76.803,477.869z"/>
	<path style="fill:#4D007E;" d="M469.336,409.603h-68.267c-4.71,0-8.533-3.823-8.533-8.533V281.603
		c0-23.526,19.14-42.667,42.667-42.667s42.667,19.14,42.667,42.667v119.467C477.869,405.78,474.046,409.603,469.336,409.603z
		 M409.603,392.536h51.2V281.603c0-14.114-11.486-25.6-25.6-25.6s-25.6,11.486-25.6,25.6V392.536z"/>
	<path style="fill:#4D007E;" d="M469.336,332.803h-68.267c-4.71,0-8.533-3.823-8.533-8.533s3.823-8.533,8.533-8.533h68.267
		c4.71,0,8.533,3.823,8.533,8.533S474.046,332.803,469.336,332.803z"/>
	<path style="fill:#4D007E;" d="M435.203,477.869c-4.71,0-8.533-3.823-8.533-8.533V247.469c0-4.71,3.823-8.533,8.533-8.533
		s8.533,3.823,8.533,8.533v221.867C443.736,474.046,439.913,477.869,435.203,477.869z"/>
	<path style="fill:#4D007E;" d="M256.003,512.003c-4.71,0-8.533-3.823-8.533-8.533V341.336c0-4.71,3.823-8.533,8.533-8.533
		c4.71,0,8.533,3.823,8.533,8.533v162.133C264.536,508.18,260.713,512.003,256.003,512.003z"/>
	<path style="fill:#4D007E;" d="M221.869,460.803c-4.71,0-8.533-3.823-8.533-8.533v-17.067c0-4.71,3.823-8.533,8.533-8.533
		c4.71,0,8.533,3.823,8.533,8.533v17.067C230.403,456.98,226.58,460.803,221.869,460.803z"/>
	<path style="fill:#4D007E;" d="M290.136,460.803c-4.71,0-8.533-3.823-8.533-8.533v-17.067c0-4.71,3.823-8.533,8.533-8.533
		s8.533,3.823,8.533,8.533v17.067C298.669,456.98,294.846,460.803,290.136,460.803z"/>
	<path style="fill:#4D007E;" d="M332.803,512.003H179.561c-4.71,0-8.533-3.823-8.533-8.533v-85.513
		c0-46.95,38.204-85.154,85.154-85.154s85.154,38.204,85.154,85.154v85.513C341.336,508.18,337.513,512.003,332.803,512.003z
		 M188.094,494.936h136.175v-76.979c0-37.538-30.549-68.087-68.087-68.087s-68.087,30.549-68.087,68.087V494.936z"/>
	<path style="fill:#4D007E;" d="M110.936,477.869H42.669c-4.71,0-8.533-3.823-8.533-8.533v-68.267c0-4.71,3.823-8.533,8.533-8.533
		h68.267c4.71,0,8.533,3.823,8.533,8.533v68.267C119.469,474.046,115.646,477.869,110.936,477.869z M51.203,460.803h51.2v-51.2
		h-51.2V460.803z"/>
	<path style="fill:#4D007E;" d="M469.336,477.869h-68.267c-4.71,0-8.533-3.823-8.533-8.533v-68.267c0-4.71,3.823-8.533,8.533-8.533
		h68.267c4.71,0,8.533,3.823,8.533,8.533v68.267C477.869,474.046,474.046,477.869,469.336,477.869z M409.603,460.803h51.2v-51.2
		h-51.2V460.803z"/>
</g>
<g>
</g>
<g>
</g>
<g>
</g>
<g>
</g>
<g>
</g>
<g>
</g>
<g>
</g>
<g>
</g>
<g>
</g>
<g>
</g>
<g>
</g>
<g>
</g>
<g>
</g>
<g>
</g>
<g>
</g>
</svg>
