<svg id="Layer_1" enable-background="new 0 0 512 512" height="512" viewBox="0 0 512 512" width="512" xmlns="http://www.w3.org/2000/svg"><g><path d="m376.5 0c-52.417 0-97.974 29.919-120.5 73.574-22.526-43.655-68.083-73.574-120.5-73.574-74.715 0-135.5 60.785-135.5 135.5v361.5c0 8.284 6.716 15 15 15h482c8.284 0 15-6.716 15-15v-361.5c0-74.715-60.785-135.5-135.5-135.5z" fill="#dce1eb"/><path d="m497 512c8.284 0 15-6.716 15-15v-361.5c0-74.715-60.785-135.5-135.5-135.5-52.417 0-97.974 29.919-120.5 73.574v438.426z" fill="#cdd2e1"/><g><path d="m195.75 150.5h-120.5c-8.284 0-15-6.716-15-15s6.716-15 15-15h120.5c8.284 0 15 6.716 15 15s-6.716 15-15 15z" fill="#23272b"/></g><g><path d="m195.75 210.75h-120.5c-8.284 0-15-6.716-15-15s6.716-15 15-15h120.5c8.284 0 15 6.716 15 15s-6.716 15-15 15z" fill="#23272b"/></g><g><path d="m195.75 271h-120.5c-8.284 0-15-6.716-15-15s6.716-15 15-15h120.5c8.284 0 15 6.716 15 15s-6.716 15-15 15z" fill="#23272b"/></g><g><path d="m195.75 331.25h-120.5c-8.284 0-15-6.716-15-15s6.716-15 15-15h120.5c8.284 0 15 6.716 15 15s-6.716 15-15 15z" fill="#23272b"/></g><g><path d="m195.75 391.5h-120.5c-8.284 0-15-6.716-15-15s6.716-15 15-15h120.5c8.284 0 15 6.716 15 15s-6.716 15-15 15z" fill="#23272b"/></g><g><path d="m436.75 150.5h-120.5c-8.284 0-15-6.716-15-15s6.716-15 15-15h120.5c8.284 0 15 6.716 15 15s-6.716 15-15 15z" fill="#0b0c0d"/></g><g><path d="m436.75 210.75h-120.5c-8.284 0-15-6.716-15-15s6.716-15 15-15h120.5c8.284 0 15 6.716 15 15s-6.716 15-15 15z" fill="#0b0c0d"/></g><g><path d="m436.75 271h-120.5c-8.284 0-15-6.716-15-15s6.716-15 15-15h120.5c8.284 0 15 6.716 15 15s-6.716 15-15 15z" fill="#0b0c0d"/></g><g><path d="m436.75 331.25h-120.5c-8.284 0-15-6.716-15-15s6.716-15 15-15h120.5c8.284 0 15 6.716 15 15s-6.716 15-15 15z" fill="#0b0c0d"/></g><g><path d="m436.75 391.5h-120.5c-8.284 0-15-6.716-15-15s6.716-15 15-15h120.5c8.284 0 15 6.716 15 15s-6.716 15-15 15z" fill="#0b0c0d"/></g></g></svg>